<?xml version="1.0" encoding="utf-8"?>
<!-- Generator: Adobe Illustrator 19.0.0, SVG Export Plug-In . SVG Version: 6.00 Build 0)  -->
<svg version="1.1" id="Layer_1" xmlns="http://www.w3.org/2000/svg" xmlns:xlink="http://www.w3.org/1999/xlink" x="0px" y="0px"
	 viewBox="0 0 120.8 116.9" style="enable-background:new 0 0 120.8 116.9;" xml:space="preserve">
<style type="text/css">
	.st0{fill:none;stroke:#FFFFFF;stroke-miterlimit:10;}
</style>
<path id="XMLID_15_" class="st0" d="M95.4,116.8c2.5-0.3,4.3-2.6,4-5.2c0-0.1,0-0.1,0-0.2l-5.9-36.2l25.9-25.8
	c1.8-1.8,1.8-4.8,0-6.6c-0.7-0.7-1.6-1.2-2.6-1.3l-36-5.6L64.5,3.2c-1.1-2.3-3.9-3.2-6.2-2.1c-0.9,0.5-1.6,1.2-2.1,2.1L39.9,36
	l-36,5.6c-2.5,0.4-4.2,2.8-3.9,5.3c0.2,1,0.6,1.9,1.3,2.6l25.9,25.8l-5.9,36.2c-0.4,2.5,1.3,4.9,3.8,5.4c1,0.2,2,0,2.9-0.5
	l32.3-16.8l32.3,16.8C93.6,116.8,94.5,117,95.4,116.8z"/>
<path id="XMLID_14_" class="st0" d="M88.8,103.8L62.5,90.1c-1.3-0.7-2.9-0.7-4.3,0L32,103.8l4.8-29.4c0.2-1.5-0.2-3-1.3-4.1l-21-21
	l29.2-4.4c1.5-0.2,2.8-1.2,3.5-2.5l13.3-26.6l13.3,26.6c0.7,1.4,2,2.3,3.5,2.5l29.2,4.4l-21,21c-1.1,1.1-1.6,2.6-1.3,4.1L88.8,103.8
	z"/>
</svg>
