<?xml version="1.0" encoding="utf-8"?>
<!-- Generator: Adobe Illustrator 19.0.0, SVG Export Plug-In . SVG Version: 6.00 Build 0)  -->
<svg version="1.1" id="Layer_1" xmlns="http://www.w3.org/2000/svg" xmlns:xlink="http://www.w3.org/1999/xlink" x="0px" y="0px"
	 viewBox="-382 331.5 116 111.3" style="enable-background:new -382 331.5 116 111.3;" xml:space="preserve">
<style type="text/css">
	.st0{enable-background:new    ;}
	.st1{clip-path:url(#SVGID_2_);}
	.st2{clip-path:url(#SVGID_5_);}
	.st3{clip-path:url(#SVGID_6_);fill:#C6C118;}
</style>
<g>
	<g>
		<g class="st0">
			<defs>
				<rect id="SVGID_1_" x="-382" y="329.4" class="st0" width="116" height="113.4"/>
			</defs>
			<clipPath id="SVGID_2_">
				<use xlink:href="#SVGID_1_"  style="overflow:visible;"/>
			</clipPath>
			<g class="st1">
				<g>
					<defs>
						<rect id="SVGID_3_" x="-381.6" y="331.7" width="114.7" height="110.4"/>
					</defs>
					<defs>
						<rect id="SVGID_4_" x="-381.6" y="331.7" width="114.7" height="110.4"/>
					</defs>
					<clipPath id="SVGID_5_">
						<use xlink:href="#SVGID_3_"  style="overflow:visible;"/>
					</clipPath>
					<clipPath id="SVGID_6_" class="st2">
						<use xlink:href="#SVGID_4_"  style="overflow:visible;"/>
					</clipPath>
					<path class="st3" d="M-268.1,371.8c1.7,1.7,1.7,4.5,0,6.2l-24.6,24.5l5.6,34.4c0,0.1,0,0.1,0,0.2c0.3,2.4-1.4,4.6-3.8,4.9
						c-0.9,0.1-1.8-0.1-2.6-0.5l-30.7-16l-30.7,16c-0.8,0.4-1.8,0.6-2.8,0.4c-2.4-0.4-4-2.7-3.6-5.1l5.6-34.4l-24.5-24.3
						c-0.7-0.7-1.1-1.5-1.3-2.5c-0.4-2.4,1.3-4.7,3.7-5.1l34.2-5.3l15.5-31.2c0.4-0.8,1.1-1.5,2-2c2.2-1.1,4.8-0.2,5.9,2l15.5,31.2
						l34.2,5.3C-269.6,370.7-268.8,371.1-268.1,371.8 M-300.5,397.9l20-19.9l-27.8-4.2c-1.4-0.2-2.6-1.1-3.3-2.4l-12.6-25.4
						l-12.6,25.3c-0.7,1.3-1.9,2.2-3.3,2.4l-27.8,4.2l20,19.9c1,1,1.5,2.5,1.3,3.9l-4.6,27.9l25-13c1.3-0.7,2.8-0.7,4.1,0l25,13
						l-4.6-27.9C-302,400.3-301.6,398.9-300.5,397.9"/>
					<path id="XMLID_16_" class="st3" d="M-280.5,377.9l-20,19.9c-1,1-1.5,2.5-1.3,3.9l4.6,27.9l-25-13c-1.3-0.7-2.8-0.7-4.1,0
						l-25,13l4.6-27.9c0.2-1.4-0.2-2.8-1.3-3.9l-20-19.9l27.8-4.2c1.4-0.2,2.6-1.1,3.3-2.4l12.6-25.3l12.6,25.3
						c0.7,1.3,1.9,2.2,3.3,2.4L-280.5,377.9z"/>
				</g>
			</g>
		</g>
	</g>
</g>
</svg>
